<?xml version="1.0" encoding="UTF-8" standalone="no"?>
<!-- Created with Inkscape (http://www.inkscape.org/) -->

<svg
   xmlns:dc="http://purl.org/dc/elements/1.1/"
   xmlns:cc="http://creativecommons.org/ns#"
   xmlns:rdf="http://www.w3.org/1999/02/22-rdf-syntax-ns#"
   xmlns:svg="http://www.w3.org/2000/svg"
   xmlns="http://www.w3.org/2000/svg"
   xmlns:sodipodi="http://sodipodi.sourceforge.net/DTD/sodipodi-0.dtd"
   xmlns:inkscape="http://www.inkscape.org/namespaces/inkscape"
   width="1200"
   height="90"
   viewBox="0 0 1200.0001 89.99999"
   id="svg2"
   version="1.1"
   inkscape:version="0.91 r13725"
   sodipodi:docname="flower.svg">
  <defs
     id="defs4" />
  <sodipodi:namedview
     id="base"
     pagecolor="#ffffff"
     bordercolor="#666666"
     borderopacity="1.0"
     inkscape:pageopacity="0.0"
     inkscape:pageshadow="2"
     inkscape:zoom="3.959798"
     inkscape:cx="1163.1178"
     inkscape:cy="6.4061077"
     inkscape:document-units="px"
     inkscape:current-layer="svg2"
     showgrid="false"
     inkscape:window-width="1920"
     inkscape:window-height="1031"
     inkscape:window-x="0"
     inkscape:window-y="0"
     inkscape:window-maximized="1"
     units="px" />
  <metadata
     id="metadata7">
    <rdf:RDF>
      <cc:Work
         rdf:about="">
        <dc:format>image/svg+xml</dc:format>
        <dc:type
           rdf:resource="http://purl.org/dc/dcmitype/StillImage" />
        <dc:title></dc:title>
      </cc:Work>
    </rdf:RDF>
  </metadata>
  <path
     inkscape:connector-curvature="0"
     style="fill:none;stroke:#333333;stroke-width:2.0000003;stroke-miterlimit:4;stroke-dasharray:none;stroke-opacity:1"
     id="path4142"
     d="m 1.6045892,42.693348 c 0,0 55.7593298,-0.818677 62.2637878,1.953367 6.504458,2.772025 24.726258,8.816135 37.427673,0.238031 13.64059,-9.212383 14.74126,-38.7013254 37.3276,-41.382102 31.52759,-3.74201458 -7.29763,89.92438 35.30945,85.082464 C 223.03722,83.004869 155.52956,10.092891 193.76237,5.4528954 223.90479,1.79476 179.14808,84.63398 215.94297,87.191045 245.50178,89.245246 206.16753,3.6948436 231.4937,2.833589 c 28.75616,-0.9778941 -0.10725,81.89807 21.59411,83.918788 27.6936,2.578702 -0.10584,-83.1577322 30.04342,-84.3617346 26.72078,-1.0670867 22.21123,88.1005126 54.50364,84.7477476 28.35876,-2.94435 21.1852,-83.6017418 55.82678,-84.7292147 33.4476,-1.08862 -4.149,78.5973687 57.61893,77.0523407 43.4636,-1.087142 51.97797,-33.360769 116.28444,-36.13091 31.00159,-1.33548 63.2312,9.639746 95.65573,9.558694 30.88109,-0.07716 10.17981,-3.95938 95.65572,-11.47044 42.68636,-3.751008 141.35966,8.431824 237.1761,8.613969 47.90823,0.09112 101.81613,-6.204532 133.73243,-8.062171 31.9161,-1.857628 50.6771,-0.233174 50.6771,-0.233174"
     sodipodi:nodetypes="csssssssssssssssssc" />
  <ellipse
     style="fill:none;stroke:#333333;stroke-width:2.00000024;stroke-miterlimit:4;stroke-dasharray:none;stroke-opacity:1"
     id="ellipse4144"
     ry="5.0060639"
     rx="4.4744916"
     cy="42.266052"
     cx="1185.9951" />
  <path
     inkscape:connector-curvature="0"
     style="fill:none;stroke:#333333;stroke-width:2.00000024;stroke-miterlimit:4;stroke-dasharray:none;stroke-opacity:1"
     id="path4146"
     d="m 1181.2627,41.54946 c 0,0 -6.8219,-6.95523 -4.5384,-9.46252 2.3071,-2.53324 8.4577,5.30824 8.4577,5.30824 0,0 -2.0748,-10.15196 1.0315,-10.38572 3.3945,-0.25543 2.4754,11.0781 2.4754,11.0781 0,0 4.6065,-9.14075 7.0138,-6.9238 2.5221,2.32276 -4.1486,9.21773 -4.1486,9.21773 0,0 8.0094,0.683 7.4491,3.93749 -0.5332,3.09727 -7.5096,1.14238 -7.5096,1.14238 0,0 4.244,6.66628 1.7336,8.55094 -2.5148,1.88808 -6.2844,-5.15664 -6.2844,-5.15664 0,0 -1.0045,8.84712 -3.982,8.20137 -2.9837,-0.6471 0.1584,-10.19932 0.1584,-10.19932 0,0 -5.1323,5.08844 -6.6011,3.00032 -1.6759,-2.38246 4.7446,-7.38539 4.7446,-7.38539" />
</svg>
